<svg width="462" height="100" viewBox="0 0 462 100" fill="none" xmlns="http://www.w3.org/2000/svg">
<g clip-path="url(#clip0_33_5)">
<g style="mix-blend-mode:multiply">
<path d="M32.0371 30.9663C35.7927 36.1593 37.8124 42.3519 37.8213 48.7015C37.8304 55.0509 35.8281 61.2489 32.0873 66.452C37.4466 62.797 43.8355 60.842 50.3804 60.8543C56.9251 60.8665 63.3062 62.8454 68.6511 66.5203C64.8961 61.3254 62.8767 55.1312 62.8678 48.7804C62.8588 42.4294 64.8606 36.2299 68.6009 31.0249C63.2442 34.6854 56.8553 36.6445 50.3094 36.6341C43.7637 36.6235 37.3813 34.6439 32.0371 30.9663Z" fill="#FCEFBF"/>
</g>
<path d="M49.8101 5.17181e-05C39.0075 -0.0154712 28.5019 3.54378 19.9238 10.1254C20.377 15.4183 22.2248 20.4955 25.2783 24.8376C26.9228 26.0044 28.4463 27.3339 29.8257 28.8059C30.7952 29.8382 31.69 30.9385 32.503 32.0985C37.5553 35.6805 43.589 37.6087 49.7774 37.6189C55.9657 37.6291 62.0058 35.7209 67.0698 32.1556C67.8958 30.9743 68.8065 29.8548 69.7945 28.8059C71.2039 27.309 72.7591 25.9573 74.4369 24.7709C77.4602 20.4533 79.288 15.4099 79.7345 10.1539C71.1496 3.55417 60.6291 -0.0156716 49.8101 5.17181e-05Z" fill="url(#paint0_linear_33_5)"/>
<g style="mix-blend-mode:multiply">
<path d="M49.8576 37.6181C56.0269 37.629 62.0475 35.7204 67.0887 32.1557C67.9205 30.9789 68.831 29.8598 69.8135 28.806C64.4664 23.5825 57.2954 20.6592 49.8291 20.6592C42.3627 20.6592 35.1917 23.5825 29.8447 28.806C30.8173 29.8381 31.7151 30.9384 32.5314 32.0986C37.5943 35.6984 43.6503 37.6276 49.8576 37.6181Z" fill="#FCEFBF"/>
</g>
<path d="M74.3036 73.9892C71.4999 71.9996 69.0563 69.5438 67.0787 66.7283C62.0259 63.1489 55.9933 61.2215 49.806 61.2095C43.6186 61.1976 37.5786 63.1018 32.512 66.6617C31.6861 67.8461 30.7755 68.9688 29.7873 70.021C28.3803 71.5174 26.8248 72.8662 25.1449 74.0464C22.1259 78.367 20.2956 83.4084 19.8379 88.6634C28.4287 95.2356 38.9362 98.7957 49.7432 98.7957C60.5502 98.7957 71.0578 95.2356 79.6485 88.6634C79.1951 83.3838 77.3506 78.3197 74.3036 73.9892Z" fill="url(#paint1_linear_33_5)"/>
<g style="mix-blend-mode:multiply">
<path d="M49.7625 61.2085C43.595 61.2004 37.5761 63.1052 32.5313 66.6614C31.7054 67.8458 30.7948 68.9685 29.8066 70.0207C35.1587 75.2379 42.33 78.1569 49.7957 78.1569C57.2614 78.1569 64.4327 75.2379 69.7849 70.0207C68.8146 68.9865 67.9169 67.8863 67.0981 66.728C62.0325 63.1263 55.9729 61.197 49.7625 61.2085Z" fill="#FCEFBF"/>
</g>
<path d="M32.5322 32.0985C31.3779 31.2801 30.2832 30.3801 29.2569 29.4054C27.7912 28.0191 26.4681 26.4888 25.3075 24.8376C20.9885 21.7682 15.9326 19.9059 10.6586 19.4419C4.09745 28.0511 0.542969 38.5843 0.542969 49.4182C0.542969 60.252 4.09745 70.7852 10.6586 79.3945C15.8952 78.9349 20.9169 77.0928 25.2125 74.0558C26.3933 72.3718 27.742 70.8126 29.2379 69.4024C30.2823 68.4097 31.3994 67.4968 32.5797 66.6713C36.1162 61.6036 38.009 55.5666 38.0005 49.3822C37.9921 43.1976 36.0827 37.166 32.5322 32.1081V32.0985Z" fill="url(#paint2_linear_33_5)"/>
<g style="mix-blend-mode:multiply">
<path d="M37.9719 49.4276C37.9827 43.226 36.0719 37.1741 32.5035 32.108C31.3491 31.2895 30.2546 30.3895 29.2281 29.4148C24.0498 34.7724 21.1543 41.9394 21.1543 49.399C21.1543 56.8587 24.0498 64.0257 29.2281 69.3832C30.2748 68.3903 31.3917 67.4743 32.57 66.6426C36.0953 61.5983 37.9817 55.5864 37.9719 49.4276Z" fill="#FCEFBF"/>
</g>
<path d="M88.9905 19.4421C83.7556 19.9024 78.7349 21.7409 74.4365 24.7712C73.253 26.453 71.9044 28.012 70.4112 29.4247C69.3648 30.4151 68.248 31.3278 67.0693 32.1559C63.5333 37.2256 61.641 43.2639 61.6494 49.4497C61.6579 55.6355 63.5669 61.6686 67.1168 66.7285C69.9185 68.7207 72.3615 71.176 74.3416 73.9894C78.6627 77.0548 83.7175 78.9167 88.9905 79.3853C95.5516 70.7761 99.1061 60.2428 99.1061 49.4089C99.1061 38.575 95.5516 28.0418 88.9905 19.4326V19.4421Z" fill="url(#paint3_linear_33_5)"/>
<g style="mix-blend-mode:multiply">
<path d="M61.6494 49.399C61.6405 55.6003 63.5511 61.6517 67.1179 66.7186C68.2744 67.5342 69.3692 68.4343 70.3932 69.4118C75.5715 64.0543 78.467 56.8873 78.467 49.4276C78.467 41.968 75.5715 34.801 70.3932 29.4434C69.3468 30.4338 68.2299 31.3465 67.0514 32.1746C63.5269 37.2228 61.6406 43.2374 61.6494 49.399Z" fill="#FCEFBF"/>
</g>
<path d="M272.298 69.7353C269.04 69.7336 265.788 69.4598 262.577 68.9169C261.579 68.7361 261.466 68.4982 261.466 67.8511V65.5101C261.466 65.2577 261.565 65.0157 261.744 64.8372C261.921 64.6588 262.162 64.5584 262.414 64.5584H262.595C265.292 64.7964 269.563 64.9105 272.26 64.9105C279.285 64.9105 281.155 62.0557 281.155 57.9827C281.155 55.0516 279.466 53.4054 274.129 50.1127L268.434 46.6584C263.041 43.3657 260.354 40.3681 260.354 35.6765C260.354 28.5773 265.443 25.2847 274.348 25.2847C277.755 25.2998 281.158 25.535 284.535 25.9889C285.124 26.1031 285.532 26.3981 285.532 26.9882V29.5005C285.532 29.6295 285.506 29.7572 285.456 29.876C285.404 29.9947 285.331 30.1017 285.237 30.1908C285.144 30.2798 285.033 30.3488 284.913 30.3938C284.792 30.4386 284.664 30.4585 284.535 30.452H284.421C281.839 30.2713 277.776 30.0999 274.348 30.0999C268.31 30.0999 265.738 31.3942 265.738 35.6765C265.738 38.4362 267.636 40.0826 272.117 42.7756L277.509 46.0112C284.307 50.0556 286.699 53.2911 286.699 57.9827C286.757 63.6259 283.832 69.7353 272.298 69.7353Z" fill="#009F94"/>
<path d="M316.689 54.8237H297.065V55.6421C297.065 62.6271 299.818 65.2156 305.21 65.2156C308.703 65.2265 312.19 65.0104 315.653 64.5685H315.949C316.065 64.5506 316.186 64.5585 316.3 64.5914C316.414 64.6243 316.52 64.6817 316.61 64.7593C316.7 64.837 316.772 64.9333 316.822 65.0416C316.872 65.15 316.897 65.2676 316.897 65.3868V67.3853C316.897 68.1466 316.669 68.5653 315.73 68.7366C312.288 69.3988 308.791 69.7176 305.287 69.6883C298.546 69.6883 291.995 66.5192 291.995 55.5945V50.313C291.995 41.9197 296.628 36.5811 305.002 36.5811C313.546 36.5811 317.885 41.9768 317.885 50.313V53.4819C317.8 54.2908 317.391 54.8237 316.689 54.8237ZM312.597 50.3606C312.597 43.6992 310.081 41.1488 304.926 41.1488C299.771 41.1488 297.074 44.0037 297.074 50.3606V50.8935H312.597V50.3606Z" fill="#009F94"/>
<path d="M337.358 41.082C334.484 41.1144 331.679 41.9732 329.279 43.5563V68.1464C329.27 68.4546 329.144 68.748 328.927 68.967C328.71 69.186 328.419 69.3145 328.111 69.3264H325.263C324.962 69.3116 324.677 69.1805 324.471 68.9605C324.264 68.7406 324.15 68.4488 324.152 68.1464V38.208C324.147 38.0578 324.172 37.908 324.225 37.7674C324.279 37.6268 324.359 37.4983 324.463 37.3894C324.566 37.2804 324.69 37.1931 324.828 37.1328C324.965 37.0724 325.113 37.04 325.263 37.0375H328.016C328.167 37.0388 328.316 37.0702 328.454 37.1301C328.592 37.1898 328.718 37.2769 328.822 37.3861C328.927 37.4951 329.009 37.624 329.063 37.7652C329.117 37.9064 329.142 38.057 329.136 38.208V39.4452C331.512 37.635 334.403 36.6346 337.387 36.5903C338.213 36.5903 338.62 36.9424 338.62 37.6466V40.0542C338.593 40.7299 338.231 41.082 337.358 41.082Z" fill="#009F94"/>
<path d="M368.165 38.446L360.256 66.3858C359.496 69.0314 357.503 69.7356 354.987 69.7356C352.471 69.7356 350.478 69.0314 349.718 66.3858L341.809 38.446C341.767 38.314 341.748 38.1754 341.753 38.0368C341.746 37.9079 341.766 37.779 341.81 37.658C341.856 37.537 341.925 37.4264 342.013 37.3329C342.102 37.2395 342.209 37.165 342.328 37.1142C342.446 37.0635 342.574 37.0374 342.702 37.0376H345.92C346.386 37.0376 346.804 37.3897 347.031 38.1509L353.772 63.7498C354.123 65.1582 354.408 65.4532 354.996 65.4532C355.585 65.4532 355.879 65.1582 356.231 63.7498L362.962 38.1509C363.199 37.3897 363.607 37.0376 364.073 37.0376H367.301C367.429 37.0374 367.557 37.0635 367.675 37.1142C367.794 37.165 367.9 37.2395 367.989 37.3329C368.078 37.4264 368.147 37.537 368.192 37.658C368.237 37.779 368.256 37.9079 368.25 38.0368C368.246 38.1772 368.217 38.3157 368.165 38.446Z" fill="#009F94"/>
<path d="M378.532 31.8702H375.541C375.232 31.8677 374.937 31.7436 374.719 31.5247C374.5 31.3057 374.375 31.0094 374.373 30.6997V25.9987C374.375 25.689 374.5 25.3927 374.719 25.1738C374.937 24.9547 375.232 24.8306 375.541 24.8281H378.532C378.841 24.8281 379.139 24.9515 379.357 25.171C379.577 25.3906 379.699 25.6883 379.699 25.9987V30.6997C379.697 31.0094 379.573 31.3057 379.355 31.5247C379.136 31.7436 378.841 31.8677 378.532 31.8702ZM378.418 69.3264H375.57C375.259 69.3239 374.96 69.1987 374.74 68.9781C374.519 68.7573 374.395 68.4585 374.392 68.1463V38.2081C374.395 37.8967 374.519 37.5991 374.74 37.3798C374.961 37.1605 375.259 37.0376 375.57 37.0376H378.418C378.728 37.0376 379.024 37.1609 379.244 37.3804C379.462 37.5999 379.586 37.8977 379.586 38.2081V68.1463C379.586 68.4577 379.462 68.7564 379.244 68.9774C379.025 69.1985 378.728 69.3239 378.418 69.3264Z" fill="#009F94"/>
<path d="M406.292 69.0884C403.875 69.5161 401.425 69.7326 398.972 69.7355C391.006 69.7355 386.497 64.1019 386.497 55.4611V50.8837C386.497 42.2525 390.949 36.6094 398.972 36.6094C401.425 36.615 403.875 36.8315 406.292 37.2565C407.241 37.4277 407.469 37.7228 407.469 38.5411V40.6538C407.452 40.8944 407.344 41.1197 407.168 41.284C406.992 41.4483 406.759 41.5393 406.519 41.5388H406.282C403.873 41.2471 401.447 41.1104 399.019 41.1296C394.339 41.1296 391.7 44.2414 391.7 50.8742V55.4516C391.7 62.0274 394.273 65.1963 399.019 65.1963C401.447 65.2154 403.873 65.0787 406.282 64.7871H406.519C406.639 64.7794 406.761 64.7961 406.874 64.8364C406.987 64.8766 407.092 64.9396 407.181 65.0215C407.27 65.1033 407.341 65.2023 407.39 65.3125C407.44 65.4227 407.467 65.5417 407.469 65.6626V67.7752C407.469 68.5651 407.231 68.9172 406.292 69.0884ZM402.191 72.0861L395.544 79.4803C395.022 80.0702 394.842 80.3557 394.196 80.3557H391.035C390.684 80.3557 390.513 80.1845 390.513 79.9465C390.511 79.7309 390.593 79.523 390.741 79.3661L396.437 72.0861C396.96 71.439 397.196 71.2011 397.899 71.2011H401.763C402.171 71.2011 402.408 71.3153 402.408 71.6102C402.4 71.7913 402.322 71.9621 402.191 72.0861Z" fill="#009F94"/>
<path d="M423.161 69.7352C414.55 69.7352 410.155 64.0254 410.155 55.4608V50.9976C410.155 42.3664 414.55 36.7231 423.161 36.7231C431.772 36.7231 436.215 42.433 436.215 50.9976V55.4608C436.215 64.0349 431.772 69.7352 423.161 69.7352ZM431.07 50.95C431.07 44.9643 428.668 41.1482 423.161 41.1482C417.655 41.1482 415.31 44.8977 415.31 50.95V55.4132C415.31 61.3989 417.655 65.215 423.161 65.215C428.668 65.215 431.07 61.456 431.07 55.4132V50.95Z" fill="#009F94"/>
<path d="M449.574 69.7356C446.466 69.7587 443.365 69.4621 440.318 68.8506C439.558 68.6793 439.083 68.3272 439.083 67.68V65.6626C439.092 65.5349 439.128 65.4103 439.186 65.2964C439.244 65.1825 439.326 65.0817 439.424 65.0001C439.522 64.9183 439.636 64.8573 439.759 64.8207C439.882 64.7841 440.01 64.7726 440.137 64.7871H440.374C443.223 65.1392 447.466 65.4248 449.574 65.4248C453.372 65.4248 455.365 64.4731 455.365 61.2566C455.365 59.4961 454.311 58.4017 450.979 56.3842L445.064 52.8632C441.485 50.6935 439.083 48.1717 439.083 44.4698C439.083 38.3699 443.659 36.6665 449.687 36.6665C452.748 36.6663 455.802 36.9209 458.82 37.4278C459.58 37.5419 459.931 37.9512 459.931 38.5982V40.5015C459.947 40.6325 459.934 40.7652 459.892 40.8903C459.851 41.0156 459.782 41.1299 459.691 41.2254C459.601 41.3209 459.49 41.3951 459.367 41.4427C459.245 41.4903 459.113 41.5101 458.982 41.5007H458.802C456.75 41.32 453.001 41.025 449.725 41.025C446.45 41.025 444.276 41.4437 444.276 44.4317C444.276 46.1923 445.624 47.2867 448.32 48.8949L454.121 52.3589C458.982 55.2138 460.558 57.7546 460.558 61.2185C460.519 67.2138 456.134 69.7356 449.574 69.7356Z" fill="#009F94"/>
<path d="M150.255 69.2593L150.187 40.2441L139.508 64.7961H132.122L121.441 40.2441V69.2593H111.33V24.5327H123.672L135.757 51.1213L147.843 24.5327H160.185V69.2593H150.255Z" fill="#216CB3"/>
<path d="M190.82 24.6282C202.213 24.6282 208.764 30.2428 208.764 40.1873C208.764 50.6553 202.204 56.6981 190.82 56.6981H182.741V69.2596H171.415V24.6282H190.82ZM182.741 47.7719H190.251C195.207 47.7719 198.073 45.288 198.073 40.568C198.073 35.8479 195.226 33.5545 190.251 33.5545H182.741V47.7719Z" fill="#216CB3"/>
<path d="M228.227 33.5543V43.8794H248.164V52.8153H228.227V69.2593H216.9V24.6279H249.939V33.5543H228.227Z" fill="#216CB3"/>
</g>
<defs>
<linearGradient id="paint0_linear_33_5" x1="49.8291" y1="5.17181e-05" x2="49.8291" y2="37.618" gradientUnits="userSpaceOnUse">
<stop stop-color="#FF8933"/>
<stop offset="0.05" stop-color="#FF9140"/>
<stop offset="0.28" stop-color="#FFAE72"/>
<stop offset="0.5" stop-color="#FFC59A"/>
<stop offset="0.7" stop-color="#FFD6B7"/>
<stop offset="0.87" stop-color="#FFE0C8"/>
<stop offset="1" stop-color="#FFE4CE"/>
</linearGradient>
<linearGradient id="paint1_linear_33_5" x1="49.7906" y1="61.209" x2="49.7906" y2="98.8173" gradientUnits="userSpaceOnUse">
<stop stop-color="#BDE5F9"/>
<stop offset="0.15" stop-color="#B7E4F9"/>
<stop offset="0.35" stop-color="#A8E0FA"/>
<stop offset="0.57" stop-color="#8DDAFB"/>
<stop offset="0.8" stop-color="#69D1FD"/>
<stop offset="1" stop-color="#45C9FF"/>
</linearGradient>
<linearGradient id="paint2_linear_33_5" x1="0.51927" y1="49.4086" x2="37.9722" y2="49.4086" gradientUnits="userSpaceOnUse">
<stop stop-color="#49E9BB"/>
<stop offset="0.12" stop-color="#5CE7C0"/>
<stop offset="0.38" stop-color="#83E4C9"/>
<stop offset="0.62" stop-color="#9EE1D0"/>
<stop offset="0.84" stop-color="#AFE0D4"/>
<stop offset="1" stop-color="#B5DFD5"/>
</linearGradient>
<linearGradient id="paint3_linear_33_5" x1="51.1008" y1="49.4089" x2="110.76" y2="49.4089" gradientUnits="userSpaceOnUse">
<stop stop-color="#F4E5FF"/>
<stop offset="0.16" stop-color="#F1DFFF"/>
<stop offset="0.39" stop-color="#E9CDFF"/>
<stop offset="0.64" stop-color="#DCB1FF"/>
<stop offset="0.93" stop-color="#CA89FF"/>
<stop offset="1" stop-color="#C57DFF"/>
</linearGradient>
<clipPath id="clip0_33_5">
<rect width="461.107" height="99.7806" fill="white"/>
</clipPath>
</defs>
</svg>
