<svg width="573" height="186" viewBox="0 0 573 186" fill="none" xmlns="http://www.w3.org/2000/svg">
<path d="M235.73 185.29H185.16L174 105.22C173.22 99.57 172.5 93.29 171.86 86.37C171.21 79.46 169.8 71.91 169.28 63.72C168.07 71.57 165.69 81.35 162.14 93.07C161.36 95.52 160.8 97.33 160.45 98.51L134.62 185.28H100.92L75.09 98.51C74.74 97.33 74.22 95.52 73.53 93.07C69.9 81.35 67.52 71.61 66.39 63.84C65.87 70.84 64.74 77.78 64.05 84.65C63.36 91.53 62.53 98.37 61.58 105.21L50.42 185.28H0L33.69 0.0800018L83.87 0L111.61 95.59C111.78 96.26 112.13 97.36 112.65 98.88C115.33 107.4 117.02 114.69 117.71 120.76C118.05 117.47 118.71 113.83 119.66 109.82C120.61 105.81 121.91 100.99 123.55 95.33L151.57 0.0699921H202.22L235.72 185.27L235.73 185.29Z" fill="white"/>
<path d="M319.99 185.29H269.35V0.0898438H325.98C348.79 0.0898438 364.8 1.09985 374.02 3.12985C383.23 5.14985 391.05 8.61984 397.47 13.5098C405.01 19.1698 410.76 26.2298 414.72 34.7098C418.68 43.1898 420.65 52.6199 420.65 62.9899C420.65 74.0399 418.7 83.7699 414.79 92.1599C410.88 100.55 405.11 107.45 397.47 112.85C391.69 116.9 384.9 119.81 377.08 121.58C369.26 123.35 356.74 124.23 339.51 124.23H319.98V185.29H319.99ZM319.99 83.5398H330.6C343.98 83.5398 353.33 81.8698 358.64 78.5298C363.94 75.1998 366.59 69.5098 366.59 61.4798C366.59 53.4498 363.98 48.1799 358.78 44.8799C353.57 41.5899 344.36 39.9398 331.16 39.9398H320V83.5298L319.99 83.5398Z" fill="white"/>
<path d="M454.63 185.29V0.0898438H572.28V40.6299H505.1V72.8499H567.3V112.54H505.1V185.29H454.63Z" fill="white"/>
</svg>
